<svg width="205" height="35" viewBox="0 0 205 35" fill="none" xmlns="http://www.w3.org/2000/svg">
<path d="M61.4404 24L58.5804 19.9C58.4604 19.9133 58.2804 19.92 58.0404 19.92H54.8804V24H52.2804V10H58.0404C59.2537 10 60.3071 10.2 61.2004 10.6C62.1071 11 62.8004 11.5733 63.2804 12.32C63.7604 13.0667 64.0004 13.9533 64.0004 14.98C64.0004 16.0333 63.7404 16.94 63.2204 17.7C62.7137 18.46 61.9804 19.0267 61.0204 19.4L64.2404 24H61.4404ZM61.3804 14.98C61.3804 14.0867 61.0871 13.4 60.5004 12.92C59.9137 12.44 59.0537 12.2 57.9204 12.2H54.8804V17.78H57.9204C59.0537 17.78 59.9137 17.54 60.5004 17.06C61.0871 16.5667 61.3804 15.8733 61.3804 14.98ZM71.4693 24.14C70.3893 24.14 69.416 23.9067 68.5493 23.44C67.6826 22.9733 67.0026 22.3267 66.5093 21.5C66.0293 20.66 65.7893 19.7133 65.7893 18.66C65.7893 17.6067 66.0293 16.6667 66.5093 15.84C67.0026 15.0133 67.6826 14.3667 68.5493 13.9C69.416 13.4333 70.3893 13.2 71.4693 13.2C72.5626 13.2 73.5426 13.4333 74.4093 13.9C75.276 14.3667 75.9493 15.0133 76.4293 15.84C76.9226 16.6667 77.1693 17.6067 77.1693 18.66C77.1693 19.7133 76.9226 20.66 76.4293 21.5C75.9493 22.3267 75.276 22.9733 74.4093 23.44C73.5426 23.9067 72.5626 24.14 71.4693 24.14ZM71.4693 22C72.3893 22 73.1493 21.6933 73.7493 21.08C74.3493 20.4667 74.6493 19.66 74.6493 18.66C74.6493 17.66 74.3493 16.8533 73.7493 16.24C73.1493 15.6267 72.3893 15.32 71.4693 15.32C70.5493 15.32 69.7893 15.6267 69.1893 16.24C68.6026 16.8533 68.3093 17.66 68.3093 18.66C68.3093 19.66 68.6026 20.4667 69.1893 21.08C69.7893 21.6933 70.5493 22 71.4693 22ZM93.0399 13.2C94.3866 13.2 95.4533 13.5933 96.2399 14.38C97.0266 15.1533 97.4199 16.32 97.4199 17.88V24H94.9199V18.2C94.9199 17.2667 94.7133 16.5667 94.2999 16.1C93.8866 15.62 93.2933 15.38 92.5199 15.38C91.6799 15.38 91.0066 15.66 90.4999 16.22C89.9933 16.7667 89.7399 17.5533 89.7399 18.58V24H87.2399V18.2C87.2399 17.2667 87.0333 16.5667 86.6199 16.1C86.2066 15.62 85.6133 15.38 84.8399 15.38C83.9866 15.38 83.3066 15.6533 82.7999 16.2C82.3066 16.7467 82.0599 17.54 82.0599 18.58V24H79.5599V13.32H81.9399V14.68C82.3399 14.2 82.8399 13.8333 83.4399 13.58C84.0399 13.3267 84.7066 13.2 85.4399 13.2C86.2399 13.2 86.9466 13.3533 87.5599 13.66C88.1866 13.9533 88.6799 14.3933 89.0399 14.98C89.4799 14.42 90.0466 13.9867 90.7399 13.68C91.4333 13.36 92.1999 13.2 93.0399 13.2ZM104.695 13.2C106.268 13.2 107.468 13.58 108.295 14.34C109.135 15.0867 109.555 16.22 109.555 17.74V24H107.195V22.7C106.888 23.1667 106.448 23.5267 105.875 23.78C105.315 24.02 104.635 24.14 103.835 24.14C103.035 24.14 102.335 24.0067 101.735 23.74C101.135 23.46 100.668 23.08 100.335 22.6C100.015 22.1067 99.8546 21.5533 99.8546 20.94C99.8546 19.98 100.208 19.2133 100.915 18.64C101.635 18.0533 102.761 17.76 104.295 17.76H107.055V17.6C107.055 16.8533 106.828 16.28 106.375 15.88C105.935 15.48 105.275 15.28 104.395 15.28C103.795 15.28 103.201 15.3733 102.615 15.56C102.041 15.7467 101.555 16.0067 101.155 16.34L100.175 14.52C100.735 14.0933 101.408 13.7667 102.195 13.54C102.981 13.3133 103.815 13.2 104.695 13.2ZM104.355 22.32C104.981 22.32 105.535 22.18 106.015 21.9C106.508 21.6067 106.855 21.1933 107.055 20.66V19.42H104.475C103.035 19.42 102.315 19.8933 102.315 20.84C102.315 21.2933 102.495 21.6533 102.855 21.92C103.215 22.1867 103.715 22.32 104.355 22.32ZM118.823 13.2C120.17 13.2 121.25 13.5933 122.063 14.38C122.876 15.1667 123.283 16.3333 123.283 17.88V24H120.783V18.2C120.783 17.2667 120.563 16.5667 120.123 16.1C119.683 15.62 119.056 15.38 118.243 15.38C117.323 15.38 116.596 15.66 116.063 16.22C115.53 16.7667 115.263 17.56 115.263 18.6V24H112.763V13.32H115.143V14.7C115.556 14.2067 116.076 13.8333 116.703 13.58C117.33 13.3267 118.036 13.2 118.823 13.2ZM131.452 24.14C130.345 24.14 129.352 23.9067 128.472 23.44C127.592 22.9733 126.905 22.3267 126.412 21.5C125.919 20.66 125.672 19.7133 125.672 18.66C125.672 17.6067 125.919 16.6667 126.412 15.84C126.905 15.0133 127.585 14.3667 128.452 13.9C129.332 13.4333 130.332 13.2 131.452 13.2C132.505 13.2 133.425 13.4133 134.212 13.84C135.012 14.2667 135.612 14.88 136.012 15.68L134.092 16.8C133.785 16.3067 133.399 15.94 132.932 15.7C132.479 15.4467 131.979 15.32 131.432 15.32C130.499 15.32 129.725 15.6267 129.112 16.24C128.499 16.84 128.192 17.6467 128.192 18.66C128.192 19.6733 128.492 20.4867 129.092 21.1C129.705 21.7 130.485 22 131.432 22C131.979 22 132.479 21.88 132.932 21.64C133.399 21.3867 133.785 21.0133 134.092 20.52L136.012 21.64C135.599 22.44 134.992 23.06 134.192 23.5C133.405 23.9267 132.492 24.14 131.452 24.14ZM148.057 18.72C148.057 18.8933 148.044 19.14 148.017 19.46H139.637C139.784 20.2467 140.164 20.8733 140.777 21.34C141.404 21.7933 142.177 22.02 143.097 22.02C144.27 22.02 145.237 21.6333 145.997 20.86L147.337 22.4C146.857 22.9733 146.25 23.4067 145.517 23.7C144.784 23.9933 143.957 24.14 143.037 24.14C141.864 24.14 140.83 23.9067 139.937 23.44C139.044 22.9733 138.35 22.3267 137.857 21.5C137.377 20.66 137.137 19.7133 137.137 18.66C137.137 17.62 137.37 16.6867 137.837 15.86C138.317 15.02 138.977 14.3667 139.817 13.9C140.657 13.4333 141.604 13.2 142.657 13.2C143.697 13.2 144.624 13.4333 145.437 13.9C146.264 14.3533 146.904 15 147.357 15.84C147.824 16.6667 148.057 17.6267 148.057 18.72ZM142.657 15.2C141.857 15.2 141.177 15.44 140.617 15.92C140.07 16.3867 139.737 17.0133 139.617 17.8H145.677C145.57 17.0267 145.244 16.4 144.697 15.92C144.15 15.44 143.47 15.2 142.657 15.2ZM165.386 24L162.526 19.9C162.406 19.9133 162.226 19.92 161.986 19.92H158.826V24H156.226V10H161.986C163.199 10 164.252 10.2 165.146 10.6C166.052 11 166.746 11.5733 167.226 12.32C167.706 13.0667 167.946 13.9533 167.946 14.98C167.946 16.0333 167.686 16.94 167.166 17.7C166.659 18.46 165.926 19.0267 164.966 19.4L168.186 24H165.386ZM165.326 14.98C165.326 14.0867 165.032 13.4 164.446 12.92C163.859 12.44 162.999 12.2 161.866 12.2H158.826V17.78H161.866C162.999 17.78 163.859 17.54 164.446 17.06C165.032 16.5667 165.326 15.8733 165.326 14.98ZM175.415 24.14C174.335 24.14 173.361 23.9067 172.495 23.44C171.628 22.9733 170.948 22.3267 170.455 21.5C169.975 20.66 169.735 19.7133 169.735 18.66C169.735 17.6067 169.975 16.6667 170.455 15.84C170.948 15.0133 171.628 14.3667 172.495 13.9C173.361 13.4333 174.335 13.2 175.415 13.2C176.508 13.2 177.488 13.4333 178.355 13.9C179.221 14.3667 179.895 15.0133 180.375 15.84C180.868 16.6667 181.115 17.6067 181.115 18.66C181.115 19.7133 180.868 20.66 180.375 21.5C179.895 22.3267 179.221 22.9733 178.355 23.44C177.488 23.9067 176.508 24.14 175.415 24.14ZM175.415 22C176.335 22 177.095 21.6933 177.695 21.08C178.295 20.4667 178.595 19.66 178.595 18.66C178.595 17.66 178.295 16.8533 177.695 16.24C177.095 15.6267 176.335 15.32 175.415 15.32C174.495 15.32 173.735 15.6267 173.135 16.24C172.548 16.8533 172.255 17.66 172.255 18.66C172.255 19.66 172.548 20.4667 173.135 21.08C173.735 21.6933 174.495 22 175.415 22ZM186.805 24.14C185.939 24.14 185.092 24.0267 184.265 23.8C183.439 23.5733 182.779 23.2867 182.285 22.94L183.245 21.04C183.725 21.36 184.299 21.62 184.965 21.82C185.645 22.0067 186.312 22.1 186.965 22.1C188.459 22.1 189.205 21.7067 189.205 20.92C189.205 20.5467 189.012 20.2867 188.625 20.14C188.252 19.9933 187.645 19.8533 186.805 19.72C185.925 19.5867 185.205 19.4333 184.645 19.26C184.099 19.0867 183.619 18.7867 183.205 18.36C182.805 17.92 182.605 17.3133 182.605 16.54C182.605 15.5267 183.025 14.72 183.865 14.12C184.719 13.5067 185.865 13.2 187.305 13.2C188.039 13.2 188.772 13.2867 189.505 13.46C190.239 13.62 190.839 13.84 191.305 14.12L190.345 16.02C189.439 15.4867 188.419 15.22 187.285 15.22C186.552 15.22 185.992 15.3333 185.605 15.56C185.232 15.7733 185.045 16.06 185.045 16.42C185.045 16.82 185.245 17.1067 185.645 17.28C186.059 17.44 186.692 17.5933 187.545 17.74C188.399 17.8733 189.099 18.0267 189.645 18.2C190.192 18.3733 190.659 18.6667 191.045 19.08C191.445 19.4933 191.645 20.08 191.645 20.84C191.645 21.84 191.212 22.64 190.345 23.24C189.479 23.84 188.299 24.14 186.805 24.14ZM203.838 18.72C203.838 18.8933 203.825 19.14 203.798 19.46H195.418C195.565 20.2467 195.945 20.8733 196.558 21.34C197.185 21.7933 197.958 22.02 198.878 22.02C200.052 22.02 201.018 21.6333 201.778 20.86L203.118 22.4C202.638 22.9733 202.032 23.4067 201.298 23.7C200.565 23.9933 199.738 24.14 198.818 24.14C197.645 24.14 196.612 23.9067 195.718 23.44C194.825 22.9733 194.132 22.3267 193.638 21.5C193.158 20.66 192.918 19.7133 192.918 18.66C192.918 17.62 193.152 16.6867 193.618 15.86C194.098 15.02 194.758 14.3667 195.598 13.9C196.438 13.4333 197.385 13.2 198.438 13.2C199.478 13.2 200.405 13.4333 201.218 13.9C202.045 14.3533 202.685 15 203.138 15.84C203.605 16.6667 203.838 17.6267 203.838 18.72ZM198.438 15.2C197.638 15.2 196.958 15.44 196.398 15.92C195.852 16.3867 195.518 17.0133 195.398 17.8H201.458C201.352 17.0267 201.025 16.4 200.478 15.92C199.932 15.44 199.252 15.2 198.438 15.2ZM199.398 9.12H202.338L198.858 11.86H196.698L199.398 9.12Z" fill="#F2F2F2"/>
<path d="M32.7442 6.17421C32.5993 5.76474 32.2117 5.4913 31.7776 5.4913C25.9736 5.4913 21.6152 7.31786 19.3204 8.56132C19.6038 8.8189 19.8817 9.08359 20.1536 9.35552C23.1716 12.3735 25.2503 15.9695 26.3318 20.0438C27.1969 23.3025 27.1763 25.9906 27.1675 27.1385C27.1668 27.2314 27.1661 27.314 27.1661 27.3859C27.1661 29.9677 26.1608 32.3948 24.3354 34.2202C24.2137 34.3419 24.0891 34.4597 23.9621 34.5741C28.4303 33.2736 31.7051 29.1421 31.7051 24.2588C31.7051 22.5546 31.4522 21.966 30.1629 17.4502C28.2988 10.9307 30.69 8.71998 32.4236 7.31315C32.7613 7.03964 32.8892 6.58369 32.7442 6.17421Z" fill="#F2F2F2"/>
<path d="M18.7035 10.8056C14.9315 7.03364 9.4867 4.39319 3.22218 4.39319C2.81996 4.39319 2.45478 4.62841 2.28853 4.99468C2.12221 5.36095 2.18544 5.79066 2.45027 6.09349C3.78314 7.61797 6.73442 10.8197 4.95263 17.0417C4.72041 17.8515 4.44834 18.8018 4.19412 19.6895C1.02026 30.7703 9.08031 35 14.0405 35H17.5012C19.5352 35 21.4473 34.2081 22.8853 32.7699C24.3234 31.3318 25.1154 29.4198 25.1154 27.3859C25.1154 25.6004 25.4823 17.5844 18.7035 10.8056Z" fill="#F2F2F2"/>
<path d="M21.7499 4.54193L22.1924 5.06864C23.6986 4.54118 25.4881 4.0561 27.5173 3.75525C27.6818 2.97158 27.9451 2.20835 28.3021 1.49215C28.4205 1.25467 28.449 0.97877 28.3701 0.72543C28.2327 0.28376 27.8304 0 27.3891 0C24.8558 0 22.3196 0.598828 20.0541 1.73175C19.8009 1.85835 19.5517 1.99261 19.3055 2.13233C20.1932 2.85961 21.0153 3.66769 21.7499 4.54193Z" fill="#F2F2F2"/>
<path d="M7.19161 2.67203C9.08449 2.98874 10.9309 3.53233 12.7118 4.30274C14.4672 5.06215 16.1072 6.01658 17.6163 7.15224L18.3434 6.75821C18.8405 6.48888 19.4559 6.17982 20.1797 5.86113C18.7417 4.14941 16.9494 2.7313 14.9504 1.73175C12.6848 0.598828 10.1486 0 7.61537 0C7.17404 0 6.77182 0.28376 6.63435 0.725498C6.55553 0.978838 6.58403 1.2548 6.70236 1.49222C6.8924 1.87346 7.0553 2.26823 7.19161 2.67203Z" fill="#F2F2F2"/>
</svg>
